<?xml version="1.0" encoding="UTF-8" standalone="no"?>
<!DOCTYPE svg PUBLIC "-//W3C//DTD SVG 1.1//EN"
 "http://www.w3.org/Graphics/SVG/1.1/DTD/svg11.dtd">
<!-- Generated by graphviz version 2.40.1 (20161225.0304)
 -->
<!-- Title: dependencies Pages: 1 -->
<svg width="746pt" height="211pt"
 viewBox="0.00 0.00 746.00 211.00" xmlns="http://www.w3.org/2000/svg" xmlns:xlink="http://www.w3.org/1999/xlink">
<g id="graph0" class="graph" transform="scale(1 1) rotate(0) translate(4 207)">
<title>dependencies</title>
<polygon fill="#ffffff" stroke="transparent" points="-4,4 -4,-207 742,-207 742,4 -4,4"/>
<text text-anchor="start" x="348.0091" y="-42.4" font-family="sans-serif" font-weight="bold" font-size="14.00" fill="#000000">Legend</text>
<polygon fill="#ffffb3" stroke="transparent" points="135,-10 135,-30 155,-30 155,-10 135,-10"/>
<text text-anchor="start" x="158.629" y="-15.4" font-family="sans-serif" font-size="14.00" fill="#000000"> &#160;Declarations</text>
<polygon fill="#8dd3c7" stroke="transparent" points="248,-10 248,-30 268,-30 268,-10 248,-10"/>
<text text-anchor="start" x="271.7251" y="-15.4" font-family="sans-serif" font-size="14.00" fill="#000000"> &#160;Module</text>
<polygon fill="#80b1d3" stroke="transparent" points="334,-10 334,-30 354,-30 354,-10 334,-10"/>
<text text-anchor="start" x="357.7812" y="-15.4" font-family="sans-serif" font-size="14.00" fill="#000000"> &#160;Bootstrap</text>
<polygon fill="#fdb462" stroke="transparent" points="431,-10 431,-30 451,-30 451,-10 431,-10"/>
<text text-anchor="start" x="454.6732" y="-15.4" font-family="sans-serif" font-size="14.00" fill="#000000"> &#160;Providers</text>
<polygon fill="#fb8072" stroke="transparent" points="527,-10 527,-30 547,-30 547,-10 527,-10"/>
<text text-anchor="start" x="550.7258" y="-15.4" font-family="sans-serif" font-size="14.00" fill="#000000"> &#160;Exports</text>
<g id="clust1" class="cluster">
<title>cluster_LazyModule</title>
<polygon fill="none" stroke="#000000" stroke-dasharray="1,5" points="8,-70 8,-195 730,-195 730,-70 8,-70"/>
</g>
<g id="clust2" class="cluster">
<title>cluster_LazyModule_declarations</title>
<polygon fill="none" stroke="#000000" points="532,-78 532,-130 722,-130 722,-78 532,-78"/>
</g>
<g id="clust4" class="cluster">
<title>cluster_LazyModule_imports</title>
<polygon fill="none" stroke="#000000" points="16,-78 16,-130 524,-130 524,-78 16,-78"/>
</g>
<!-- LazyComponentComponent -->
<g id="node1" class="node">
<title>LazyComponentComponent</title>
<polygon fill="#ffffb3" stroke="#000000" points="714.147,-122 539.853,-122 539.853,-86 714.147,-86 714.147,-122"/>
<text text-anchor="middle" x="627" y="-99.8" font-family="Times,serif" font-size="14.00" fill="#000000">LazyComponentComponent</text>
</g>
<!-- LazyModule -->
<g id="node2" class="node">
<title>LazyModule</title>
<polygon fill="#8dd3c7" stroke="#000000" points="433.5328,-187 430.5328,-191 409.5328,-191 406.5328,-187 346.4672,-187 346.4672,-151 433.5328,-151 433.5328,-187"/>
<text text-anchor="middle" x="390" y="-164.8" font-family="Times,serif" font-size="14.00" fill="#000000">LazyModule</text>
</g>
<!-- LazyComponentComponent&#45;&gt;LazyModule -->
<g id="edge1" class="edge">
<title>LazyComponentComponent&#45;&gt;LazyModule</title>
<path fill="none" stroke="#000000" d="M627,-122.1061C627,-141.3391 627,-169 627,-169 627,-169 443.7456,-169 443.7456,-169"/>
<polygon fill="#000000" stroke="#000000" points="443.7457,-165.5001 433.7456,-169 443.7456,-172.5001 443.7457,-165.5001"/>
</g>
<!-- CommonModule -->
<g id="node3" class="node">
<title>CommonModule</title>
<polygon fill="#8dd3c7" stroke="#000000" points="515.6681,-122 512.6681,-126 491.6681,-126 488.6681,-122 404.3319,-122 404.3319,-86 515.6681,-86 515.6681,-122"/>
<text text-anchor="middle" x="460" y="-99.8" font-family="Times,serif" font-size="14.00" fill="#000000">CommonModule</text>
</g>
<!-- CommonModule&#45;&gt;LazyModule -->
<g id="edge2" class="edge">
<title>CommonModule&#45;&gt;LazyModule</title>
<path fill="none" stroke="#000000" d="M418.966,-122.1061C418.966,-122.1061 418.966,-140.991 418.966,-140.991"/>
<polygon fill="#000000" stroke="#000000" points="415.4661,-140.9909 418.966,-150.991 422.4661,-140.991 415.4661,-140.9909"/>
</g>
<!-- LazyRoutingModule -->
<g id="node4" class="node">
<title>LazyRoutingModule</title>
<polygon fill="#8dd3c7" stroke="#000000" points="386.1499,-122 383.1499,-126 362.1499,-126 359.1499,-122 253.8501,-122 253.8501,-86 386.1499,-86 386.1499,-122"/>
<text text-anchor="middle" x="320" y="-99.8" font-family="Times,serif" font-size="14.00" fill="#000000">LazyRoutingModule</text>
</g>
<!-- LazyRoutingModule&#45;&gt;LazyModule -->
<g id="edge3" class="edge">
<title>LazyRoutingModule&#45;&gt;LazyModule</title>
<path fill="none" stroke="#000000" d="M366.2795,-122.1061C366.2795,-122.1061 366.2795,-140.991 366.2795,-140.991"/>
<polygon fill="#000000" stroke="#000000" points="362.7795,-140.9909 366.2795,-150.991 369.7795,-140.991 362.7795,-140.9909"/>
</g>
<!-- NgxPermissionsModule.forChild() -->
<g id="node5" class="node">
<title>NgxPermissionsModule.forChild()</title>
<polygon fill="#8dd3c7" stroke="#000000" points="235.5804,-122 232.5804,-126 211.5804,-126 208.5804,-122 24.4196,-122 24.4196,-86 235.5804,-86 235.5804,-122"/>
<text text-anchor="middle" x="130" y="-99.8" font-family="Times,serif" font-size="14.00" fill="#000000">NgxPermissionsModule.forChild()</text>
</g>
<!-- NgxPermissionsModule.forChild()&#45;&gt;LazyModule -->
<g id="edge4" class="edge">
<title>NgxPermissionsModule.forChild()&#45;&gt;LazyModule</title>
<path fill="none" stroke="#000000" d="M130,-122.1061C130,-141.3391 130,-169 130,-169 130,-169 336.1886,-169 336.1886,-169"/>
<polygon fill="#000000" stroke="#000000" points="336.1886,-172.5001 346.1886,-169 336.1885,-165.5001 336.1886,-172.5001"/>
</g>
</g>
</svg>
