<?xml version="1.0" encoding="UTF-8" standalone="no"?>
<!DOCTYPE svg PUBLIC "-//W3C//DTD SVG 1.1//EN"
 "http://www.w3.org/Graphics/SVG/1.1/DTD/svg11.dtd">
<!-- Generated by graphviz version 2.40.1 (20161225.0304)
 -->
<!-- Title: dependencies Pages: 1 -->
<svg width="1088pt" height="211pt"
 viewBox="0.00 0.00 1088.00 211.00" xmlns="http://www.w3.org/2000/svg" xmlns:xlink="http://www.w3.org/1999/xlink">
<g id="graph0" class="graph" transform="scale(1 1) rotate(0) translate(4 207)">
<title>dependencies</title>
<polygon fill="#ffffff" stroke="transparent" points="-4,4 -4,-207 1084,-207 1084,4 -4,4"/>
<text text-anchor="start" x="519.0091" y="-42.4" font-family="sans-serif" font-weight="bold" font-size="14.00" fill="#000000">Legend</text>
<polygon fill="#ffffb3" stroke="transparent" points="306,-10 306,-30 326,-30 326,-10 306,-10"/>
<text text-anchor="start" x="329.629" y="-15.4" font-family="sans-serif" font-size="14.00" fill="#000000"> &#160;Declarations</text>
<polygon fill="#8dd3c7" stroke="transparent" points="419,-10 419,-30 439,-30 439,-10 419,-10"/>
<text text-anchor="start" x="442.7251" y="-15.4" font-family="sans-serif" font-size="14.00" fill="#000000"> &#160;Module</text>
<polygon fill="#80b1d3" stroke="transparent" points="505,-10 505,-30 525,-30 525,-10 505,-10"/>
<text text-anchor="start" x="528.7812" y="-15.4" font-family="sans-serif" font-size="14.00" fill="#000000"> &#160;Bootstrap</text>
<polygon fill="#fdb462" stroke="transparent" points="602,-10 602,-30 622,-30 622,-10 602,-10"/>
<text text-anchor="start" x="625.6732" y="-15.4" font-family="sans-serif" font-size="14.00" fill="#000000"> &#160;Providers</text>
<polygon fill="#fb8072" stroke="transparent" points="698,-10 698,-30 718,-30 718,-10 698,-10"/>
<text text-anchor="start" x="721.7258" y="-15.4" font-family="sans-serif" font-size="14.00" fill="#000000"> &#160;Exports</text>
<g id="clust1" class="cluster">
<title>cluster_LazyRolesAsyncIsolateModule</title>
<polygon fill="none" stroke="#000000" stroke-dasharray="1,5" points="8,-70 8,-195 1072,-195 1072,-70 8,-70"/>
</g>
<g id="clust2" class="cluster">
<title>cluster_LazyRolesAsyncIsolateModule_declarations</title>
<polygon fill="none" stroke="#000000" points="846,-78 846,-130 1064,-130 1064,-78 846,-78"/>
</g>
<g id="clust4" class="cluster">
<title>cluster_LazyRolesAsyncIsolateModule_imports</title>
<polygon fill="none" stroke="#000000" points="202,-78 202,-130 838,-130 838,-78 202,-78"/>
</g>
<g id="clust7" class="cluster">
<title>cluster_LazyRolesAsyncIsolateModule_providers</title>
<polygon fill="none" stroke="#000000" points="16,-78 16,-130 194,-130 194,-78 16,-78"/>
</g>
<!-- LazyRolesAsyncTestComponent -->
<g id="node1" class="node">
<title>LazyRolesAsyncTestComponent</title>
<polygon fill="#ffffb3" stroke="#000000" points="1055.5688,-122 854.4312,-122 854.4312,-86 1055.5688,-86 1055.5688,-122"/>
<text text-anchor="middle" x="955" y="-99.8" font-family="Times,serif" font-size="14.00" fill="#000000">LazyRolesAsyncTestComponent</text>
</g>
<!-- LazyRolesAsyncIsolateModule -->
<g id="node2" class="node">
<title>LazyRolesAsyncIsolateModule</title>
<polygon fill="#8dd3c7" stroke="#000000" points="679.5,-187 676.5,-191 655.5,-191 652.5,-187 486.5,-187 486.5,-151 679.5,-151 679.5,-187"/>
<text text-anchor="middle" x="583" y="-164.8" font-family="Times,serif" font-size="14.00" fill="#000000">LazyRolesAsyncIsolateModule</text>
</g>
<!-- LazyRolesAsyncTestComponent&#45;&gt;LazyRolesAsyncIsolateModule -->
<g id="edge1" class="edge">
<title>LazyRolesAsyncTestComponent&#45;&gt;LazyRolesAsyncIsolateModule</title>
<path fill="none" stroke="#000000" d="M955,-122.2843C955,-143.3211 955,-175 955,-175 955,-175 689.283,-175 689.283,-175"/>
<polygon fill="#000000" stroke="#000000" points="689.2831,-171.5001 679.283,-175 689.283,-178.5001 689.2831,-171.5001"/>
</g>
<!-- CommonModule -->
<g id="node3" class="node">
<title>CommonModule</title>
<polygon fill="#8dd3c7" stroke="#000000" points="829.6681,-122 826.6681,-126 805.6681,-126 802.6681,-122 718.3319,-122 718.3319,-86 829.6681,-86 829.6681,-122"/>
<text text-anchor="middle" x="774" y="-99.8" font-family="Times,serif" font-size="14.00" fill="#000000">CommonModule</text>
</g>
<!-- CommonModule&#45;&gt;LazyRolesAsyncIsolateModule -->
<g id="edge2" class="edge">
<title>CommonModule&#45;&gt;LazyRolesAsyncIsolateModule</title>
<path fill="none" stroke="#000000" d="M774,-122.0225C774,-139.3734 774,-163 774,-163 774,-163 689.3393,-163 689.3393,-163"/>
<polygon fill="#000000" stroke="#000000" points="689.3394,-159.5001 679.3393,-163 689.3393,-166.5001 689.3394,-159.5001"/>
</g>
<!-- NgxPermissionsModule.forChild(args) -->
<g id="node4" class="node">
<title>NgxPermissionsModule.forChild(args)</title>
<polygon fill="#8dd3c7" stroke="#000000" points="700.3998,-122 697.3998,-126 676.3998,-126 673.3998,-122 465.6002,-122 465.6002,-86 700.3998,-86 700.3998,-122"/>
<text text-anchor="middle" x="583" y="-99.8" font-family="Times,serif" font-size="14.00" fill="#000000">NgxPermissionsModule.forChild(args)</text>
</g>
<!-- NgxPermissionsModule.forChild(args)&#45;&gt;LazyRolesAsyncIsolateModule -->
<g id="edge3" class="edge">
<title>NgxPermissionsModule.forChild(args)&#45;&gt;LazyRolesAsyncIsolateModule</title>
<path fill="none" stroke="#000000" d="M583,-122.1061C583,-122.1061 583,-140.991 583,-140.991"/>
<polygon fill="#000000" stroke="#000000" points="579.5001,-140.9909 583,-150.991 586.5001,-140.991 579.5001,-140.9909"/>
</g>
<!-- LazyIsolateAsyncRolesRoutingModule -->
<g id="node5" class="node">
<title>LazyIsolateAsyncRolesRoutingModule</title>
<polygon fill="#8dd3c7" stroke="#000000" points="447.6175,-122 444.6175,-126 423.6175,-126 420.6175,-122 210.3825,-122 210.3825,-86 447.6175,-86 447.6175,-122"/>
<text text-anchor="middle" x="329" y="-99.8" font-family="Times,serif" font-size="14.00" fill="#000000">LazyIsolateAsyncRolesRoutingModule</text>
</g>
<!-- LazyIsolateAsyncRolesRoutingModule&#45;&gt;LazyRolesAsyncIsolateModule -->
<g id="edge4" class="edge">
<title>LazyIsolateAsyncRolesRoutingModule&#45;&gt;LazyRolesAsyncIsolateModule</title>
<path fill="none" stroke="#000000" d="M329,-122.0225C329,-139.3734 329,-163 329,-163 329,-163 476.6113,-163 476.6113,-163"/>
<polygon fill="#000000" stroke="#000000" points="476.6114,-166.5001 486.6113,-163 476.6113,-159.5001 476.6114,-166.5001"/>
</g>
<!-- AsyncTestService -->
<g id="node6" class="node">
<title>AsyncTestService</title>
<ellipse fill="#fdb462" stroke="#000000" cx="105" cy="-104" rx="81.0763" ry="18"/>
<text text-anchor="middle" x="105" y="-99.8" font-family="Times,serif" font-size="14.00" fill="#000000">AsyncTestService</text>
</g>
<!-- AsyncTestService&#45;&gt;LazyRolesAsyncIsolateModule -->
<g id="edge5" class="edge">
<title>AsyncTestService&#45;&gt;LazyRolesAsyncIsolateModule</title>
<path fill="none" stroke="#000000" d="M105,-122.2843C105,-143.3211 105,-175 105,-175 105,-175 476.5572,-175 476.5572,-175"/>
<polygon fill="#000000" stroke="#000000" points="476.5572,-178.5001 486.5572,-175 476.5572,-171.5001 476.5572,-178.5001"/>
</g>
</g>
</svg>
