<?xml version="1.0" encoding="UTF-8" standalone="no"?>
<!DOCTYPE svg PUBLIC "-//W3C//DTD SVG 1.1//EN"
 "http://www.w3.org/Graphics/SVG/1.1/DTD/svg11.dtd">
<!-- Generated by graphviz version 2.40.1 (20161225.0304)
 -->
<!-- Title: dependencies Pages: 1 -->
<svg width="750pt" height="211pt"
 viewBox="0.00 0.00 750.00 211.00" xmlns="http://www.w3.org/2000/svg" xmlns:xlink="http://www.w3.org/1999/xlink">
<g id="graph0" class="graph" transform="scale(1 1) rotate(0) translate(4 207)">
<title>dependencies</title>
<polygon fill="#ffffff" stroke="transparent" points="-4,4 -4,-207 746,-207 746,4 -4,4"/>
<text text-anchor="start" x="350.0091" y="-42.4" font-family="sans-serif" font-weight="bold" font-size="14.00" fill="#000000">Legend</text>
<polygon fill="#ffffb3" stroke="transparent" points="137,-10 137,-30 157,-30 157,-10 137,-10"/>
<text text-anchor="start" x="160.629" y="-15.4" font-family="sans-serif" font-size="14.00" fill="#000000"> &#160;Declarations</text>
<polygon fill="#8dd3c7" stroke="transparent" points="250,-10 250,-30 270,-30 270,-10 250,-10"/>
<text text-anchor="start" x="273.7251" y="-15.4" font-family="sans-serif" font-size="14.00" fill="#000000"> &#160;Module</text>
<polygon fill="#80b1d3" stroke="transparent" points="336,-10 336,-30 356,-30 356,-10 336,-10"/>
<text text-anchor="start" x="359.7812" y="-15.4" font-family="sans-serif" font-size="14.00" fill="#000000"> &#160;Bootstrap</text>
<polygon fill="#fdb462" stroke="transparent" points="433,-10 433,-30 453,-30 453,-10 433,-10"/>
<text text-anchor="start" x="456.6732" y="-15.4" font-family="sans-serif" font-size="14.00" fill="#000000"> &#160;Providers</text>
<polygon fill="#fb8072" stroke="transparent" points="529,-10 529,-30 549,-30 549,-10 529,-10"/>
<text text-anchor="start" x="552.7258" y="-15.4" font-family="sans-serif" font-size="14.00" fill="#000000"> &#160;Exports</text>
<g id="clust1" class="cluster">
<title>cluster_LazyIsolateModule</title>
<polygon fill="none" stroke="#000000" stroke-dasharray="1,5" points="8,-70 8,-195 734,-195 734,-70 8,-70"/>
</g>
<g id="clust2" class="cluster">
<title>cluster_LazyIsolateModule_declarations</title>
<polygon fill="none" stroke="#000000" points="592,-78 592,-130 726,-130 726,-78 592,-78"/>
</g>
<g id="clust4" class="cluster">
<title>cluster_LazyIsolateModule_imports</title>
<polygon fill="none" stroke="#000000" points="16,-78 16,-130 584,-130 584,-78 16,-78"/>
</g>
<!-- IsolateComponent -->
<g id="node1" class="node">
<title>IsolateComponent</title>
<polygon fill="#ffffb3" stroke="#000000" points="718.1485,-122 599.8515,-122 599.8515,-86 718.1485,-86 718.1485,-122"/>
<text text-anchor="middle" x="659" y="-99.8" font-family="Times,serif" font-size="14.00" fill="#000000">IsolateComponent</text>
</g>
<!-- LazyIsolateModule -->
<g id="node2" class="node">
<title>LazyIsolateModule</title>
<polygon fill="#8dd3c7" stroke="#000000" points="502.3473,-187 499.3473,-191 478.3473,-191 475.3473,-187 377.6527,-187 377.6527,-151 502.3473,-151 502.3473,-187"/>
<text text-anchor="middle" x="440" y="-164.8" font-family="Times,serif" font-size="14.00" fill="#000000">LazyIsolateModule</text>
</g>
<!-- IsolateComponent&#45;&gt;LazyIsolateModule -->
<g id="edge1" class="edge">
<title>IsolateComponent&#45;&gt;LazyIsolateModule</title>
<path fill="none" stroke="#000000" d="M659,-122.1061C659,-141.3391 659,-169 659,-169 659,-169 512.4635,-169 512.4635,-169"/>
<polygon fill="#000000" stroke="#000000" points="512.4636,-165.5001 502.4635,-169 512.4635,-172.5001 512.4636,-165.5001"/>
</g>
<!-- CommonModule -->
<g id="node3" class="node">
<title>CommonModule</title>
<polygon fill="#8dd3c7" stroke="#000000" points="575.6681,-122 572.6681,-126 551.6681,-126 548.6681,-122 464.3319,-122 464.3319,-86 575.6681,-86 575.6681,-122"/>
<text text-anchor="middle" x="520" y="-99.8" font-family="Times,serif" font-size="14.00" fill="#000000">CommonModule</text>
</g>
<!-- CommonModule&#45;&gt;LazyIsolateModule -->
<g id="edge2" class="edge">
<title>CommonModule&#45;&gt;LazyIsolateModule</title>
<path fill="none" stroke="#000000" d="M483.2949,-122.1061C483.2949,-122.1061 483.2949,-140.991 483.2949,-140.991"/>
<polygon fill="#000000" stroke="#000000" points="479.795,-140.9909 483.2949,-150.991 486.795,-140.991 479.795,-140.9909"/>
</g>
<!-- LazyIsolateRoutingModule -->
<g id="node4" class="node">
<title>LazyIsolateRoutingModule</title>
<polygon fill="#8dd3c7" stroke="#000000" points="445.965,-122 442.965,-126 421.965,-126 418.965,-122 276.035,-122 276.035,-86 445.965,-86 445.965,-122"/>
<text text-anchor="middle" x="361" y="-99.8" font-family="Times,serif" font-size="14.00" fill="#000000">LazyIsolateRoutingModule</text>
</g>
<!-- LazyIsolateRoutingModule&#45;&gt;LazyIsolateModule -->
<g id="edge3" class="edge">
<title>LazyIsolateRoutingModule&#45;&gt;LazyIsolateModule</title>
<path fill="none" stroke="#000000" d="M411.7795,-122.1061C411.7795,-122.1061 411.7795,-140.991 411.7795,-140.991"/>
<polygon fill="#000000" stroke="#000000" points="408.2795,-140.9909 411.7795,-150.991 415.2795,-140.991 408.2795,-140.9909"/>
</g>
<!-- NgxPermissionsModule.forChild(args) -->
<g id="node5" class="node">
<title>NgxPermissionsModule.forChild(args)</title>
<polygon fill="#8dd3c7" stroke="#000000" points="258.3998,-122 255.3998,-126 234.3998,-126 231.3998,-122 23.6002,-122 23.6002,-86 258.3998,-86 258.3998,-122"/>
<text text-anchor="middle" x="141" y="-99.8" font-family="Times,serif" font-size="14.00" fill="#000000">NgxPermissionsModule.forChild(args)</text>
</g>
<!-- NgxPermissionsModule.forChild(args)&#45;&gt;LazyIsolateModule -->
<g id="edge4" class="edge">
<title>NgxPermissionsModule.forChild(args)&#45;&gt;LazyIsolateModule</title>
<path fill="none" stroke="#000000" d="M141,-122.1061C141,-141.3391 141,-169 141,-169 141,-169 367.3198,-169 367.3198,-169"/>
<polygon fill="#000000" stroke="#000000" points="367.3198,-172.5001 377.3198,-169 367.3198,-165.5001 367.3198,-172.5001"/>
</g>
</g>
</svg>
