<?xml version="1.0" encoding="UTF-8" standalone="no"?>
<!DOCTYPE svg PUBLIC "-//W3C//DTD SVG 1.1//EN"
 "http://www.w3.org/Graphics/SVG/1.1/DTD/svg11.dtd">
<!-- Generated by graphviz version 2.40.1 (20161225.0304)
 -->
<!-- Title: dependencies Pages: 1 -->
<svg width="960pt" height="284pt"
 viewBox="0.00 0.00 960.00 284.00" xmlns="http://www.w3.org/2000/svg" xmlns:xlink="http://www.w3.org/1999/xlink">
<g id="graph0" class="graph" transform="scale(1 1) rotate(0) translate(4 280)">
<title>dependencies</title>
<polygon fill="#ffffff" stroke="transparent" points="-4,4 -4,-280 956,-280 956,4 -4,4"/>
<text text-anchor="start" x="455.0091" y="-42.4" font-family="sans-serif" font-weight="bold" font-size="14.00" fill="#000000">Legend</text>
<polygon fill="#ffffb3" stroke="transparent" points="242,-10 242,-30 262,-30 262,-10 242,-10"/>
<text text-anchor="start" x="265.629" y="-15.4" font-family="sans-serif" font-size="14.00" fill="#000000"> &#160;Declarations</text>
<polygon fill="#8dd3c7" stroke="transparent" points="355,-10 355,-30 375,-30 375,-10 355,-10"/>
<text text-anchor="start" x="378.7251" y="-15.4" font-family="sans-serif" font-size="14.00" fill="#000000"> &#160;Module</text>
<polygon fill="#80b1d3" stroke="transparent" points="441,-10 441,-30 461,-30 461,-10 441,-10"/>
<text text-anchor="start" x="464.7812" y="-15.4" font-family="sans-serif" font-size="14.00" fill="#000000"> &#160;Bootstrap</text>
<polygon fill="#fdb462" stroke="transparent" points="538,-10 538,-30 558,-30 558,-10 538,-10"/>
<text text-anchor="start" x="561.6732" y="-15.4" font-family="sans-serif" font-size="14.00" fill="#000000"> &#160;Providers</text>
<polygon fill="#fb8072" stroke="transparent" points="634,-10 634,-30 654,-30 654,-10 634,-10"/>
<text text-anchor="start" x="657.7258" y="-15.4" font-family="sans-serif" font-size="14.00" fill="#000000"> &#160;Exports</text>
<g id="clust1" class="cluster">
<title>cluster_AppModule</title>
<polygon fill="none" stroke="#000000" stroke-dasharray="1,5" points="8,-70 8,-268 944,-268 944,-70 8,-70"/>
</g>
<g id="clust2" class="cluster">
<title>cluster_AppModule_declarations</title>
<polygon fill="none" stroke="#000000" points="519,-78 519,-130 936,-130 936,-78 519,-78"/>
</g>
<g id="clust6" class="cluster">
<title>cluster_AppModule_imports</title>
<polygon fill="none" stroke="#000000" points="16,-78 16,-130 511,-130 511,-78 16,-78"/>
</g>
<g id="clust8" class="cluster">
<title>cluster_AppModule_bootstrap</title>
<polygon fill="none" stroke="#000000" points="462,-208 462,-260 586,-260 586,-208 462,-208"/>
</g>
<!-- AppComponent -->
<g id="node1" class="node">
<title>AppComponent</title>
<polygon fill="#ffffb3" stroke="#000000" points="927.9399,-122 822.0601,-122 822.0601,-86 927.9399,-86 927.9399,-122"/>
<text text-anchor="middle" x="875" y="-99.8" font-family="Times,serif" font-size="14.00" fill="#000000">AppComponent</text>
</g>
<!-- AppModule -->
<g id="node4" class="node">
<title>AppModule</title>
<polygon fill="#8dd3c7" stroke="#000000" points="565.6571,-187 562.6571,-191 541.6571,-191 538.6571,-187 482.3429,-187 482.3429,-151 565.6571,-151 565.6571,-187"/>
<text text-anchor="middle" x="524" y="-164.8" font-family="Times,serif" font-size="14.00" fill="#000000">AppModule</text>
</g>
<!-- AppComponent&#45;&gt;AppModule -->
<g id="edge1" class="edge">
<title>AppComponent&#45;&gt;AppModule</title>
<path fill="none" stroke="#000000" d="M875,-122.2843C875,-143.3211 875,-175 875,-175 875,-175 575.9902,-175 575.9902,-175"/>
<polygon fill="#000000" stroke="#000000" points="575.9902,-171.5001 565.9902,-175 575.9901,-178.5001 575.9902,-171.5001"/>
</g>
<!-- HomeComponent -->
<g id="node2" class="node">
<title>HomeComponent</title>
<polygon fill="#ffffb3" stroke="#000000" points="804.5451,-122 689.4549,-122 689.4549,-86 804.5451,-86 804.5451,-122"/>
<text text-anchor="middle" x="747" y="-99.8" font-family="Times,serif" font-size="14.00" fill="#000000">HomeComponent</text>
</g>
<!-- HomeComponent&#45;&gt;AppModule -->
<g id="edge2" class="edge">
<title>HomeComponent&#45;&gt;AppModule</title>
<path fill="none" stroke="#000000" d="M747,-122.0225C747,-139.3734 747,-163 747,-163 747,-163 575.683,-163 575.683,-163"/>
<polygon fill="#000000" stroke="#000000" points="575.683,-159.5001 565.683,-163 575.683,-166.5001 575.683,-159.5001"/>
</g>
<!-- InitialLoadComponent -->
<g id="node3" class="node">
<title>InitialLoadComponent</title>
<polygon fill="#ffffb3" stroke="#000000" points="670.5379,-122 527.4621,-122 527.4621,-86 670.5379,-86 670.5379,-122"/>
<text text-anchor="middle" x="599" y="-99.8" font-family="Times,serif" font-size="14.00" fill="#000000">InitialLoadComponent</text>
</g>
<!-- InitialLoadComponent&#45;&gt;AppModule -->
<g id="edge3" class="edge">
<title>InitialLoadComponent&#45;&gt;AppModule</title>
<path fill="none" stroke="#000000" d="M546.5298,-122.1061C546.5298,-122.1061 546.5298,-140.991 546.5298,-140.991"/>
<polygon fill="#000000" stroke="#000000" points="543.0299,-140.9909 546.5298,-150.991 550.0299,-140.991 543.0299,-140.9909"/>
</g>
<!-- AppComponent  -->
<g id="node8" class="node">
<title>AppComponent </title>
<polygon fill="#80b1d3" stroke="#000000" points="578.439,-252 469.561,-252 469.561,-216 578.439,-216 578.439,-252"/>
<text text-anchor="middle" x="524" y="-229.8" font-family="Times,serif" font-size="14.00" fill="#000000">AppComponent </text>
</g>
<!-- AppModule&#45;&gt;AppComponent  -->
<g id="edge7" class="edge">
<title>AppModule&#45;&gt;AppComponent </title>
<path fill="none" stroke="#000000" stroke-dasharray="1,5" d="M524,-187.1061C524,-187.1061 524,-205.991 524,-205.991"/>
<polygon fill="#000000" stroke="#000000" points="520.5001,-205.9909 524,-215.991 527.5001,-205.991 520.5001,-205.9909"/>
</g>
<!-- BrowserModule -->
<g id="node5" class="node">
<title>BrowserModule</title>
<polygon fill="#8dd3c7" stroke="#000000" points="503.4734,-122 500.4734,-126 479.4734,-126 476.4734,-122 396.5266,-122 396.5266,-86 503.4734,-86 503.4734,-122"/>
<text text-anchor="middle" x="450" y="-99.8" font-family="Times,serif" font-size="14.00" fill="#000000">BrowserModule</text>
</g>
<!-- BrowserModule&#45;&gt;AppModule -->
<g id="edge4" class="edge">
<title>BrowserModule&#45;&gt;AppModule</title>
<path fill="none" stroke="#000000" d="M492.8293,-122.1061C492.8293,-122.1061 492.8293,-140.991 492.8293,-140.991"/>
<polygon fill="#000000" stroke="#000000" points="489.3293,-140.9909 492.8293,-150.991 496.3293,-140.991 489.3293,-140.9909"/>
</g>
<!-- AppRoutingModule -->
<g id="node6" class="node">
<title>AppRoutingModule</title>
<polygon fill="#8dd3c7" stroke="#000000" points="378.2744,-122 375.2744,-126 354.2744,-126 351.2744,-122 249.7256,-122 249.7256,-86 378.2744,-86 378.2744,-122"/>
<text text-anchor="middle" x="314" y="-99.8" font-family="Times,serif" font-size="14.00" fill="#000000">AppRoutingModule</text>
</g>
<!-- AppRoutingModule&#45;&gt;AppModule -->
<g id="edge5" class="edge">
<title>AppRoutingModule&#45;&gt;AppModule</title>
<path fill="none" stroke="#000000" d="M314,-122.0225C314,-139.3734 314,-163 314,-163 314,-163 472.2597,-163 472.2597,-163"/>
<polygon fill="#000000" stroke="#000000" points="472.2597,-166.5001 482.2597,-163 472.2596,-159.5001 472.2597,-166.5001"/>
</g>
<!-- NgxPermissionsModule.forRoot() -->
<g id="node7" class="node">
<title>NgxPermissionsModule.forRoot()</title>
<polygon fill="#8dd3c7" stroke="#000000" points="231.6896,-122 228.6896,-126 207.6896,-126 204.6896,-122 24.3104,-122 24.3104,-86 231.6896,-86 231.6896,-122"/>
<text text-anchor="middle" x="128" y="-99.8" font-family="Times,serif" font-size="14.00" fill="#000000">NgxPermissionsModule.forRoot()</text>
</g>
<!-- NgxPermissionsModule.forRoot()&#45;&gt;AppModule -->
<g id="edge6" class="edge">
<title>NgxPermissionsModule.forRoot()&#45;&gt;AppModule</title>
<path fill="none" stroke="#000000" d="M128,-122.2843C128,-143.3211 128,-175 128,-175 128,-175 471.996,-175 471.996,-175"/>
<polygon fill="#000000" stroke="#000000" points="471.996,-178.5001 481.996,-175 471.9959,-171.5001 471.996,-178.5001"/>
</g>
</g>
</svg>
