<?xml version="1.0" encoding="UTF-8" standalone="no"?>
<!DOCTYPE svg PUBLIC "-//W3C//DTD SVG 1.1//EN"
 "http://www.w3.org/Graphics/SVG/1.1/DTD/svg11.dtd">
<!-- Generated by graphviz version 2.40.1 (20161225.0304)
 -->
<!-- Title: dependencies Pages: 1 -->
<svg width="504pt" height="284pt"
 viewBox="0.00 0.00 504.00 284.00" xmlns="http://www.w3.org/2000/svg" xmlns:xlink="http://www.w3.org/1999/xlink">
<g id="graph0" class="graph" transform="scale(1 1) rotate(0) translate(4 280)">
<title>dependencies</title>
<polygon fill="#ffffff" stroke="transparent" points="-4,4 -4,-280 500,-280 500,4 -4,4"/>
<text text-anchor="start" x="227.0091" y="-42.4" font-family="sans-serif" font-weight="bold" font-size="14.00" fill="#000000">Legend</text>
<polygon fill="#ffffb3" stroke="transparent" points="14,-10 14,-30 34,-30 34,-10 14,-10"/>
<text text-anchor="start" x="37.629" y="-15.4" font-family="sans-serif" font-size="14.00" fill="#000000"> &#160;Declarations</text>
<polygon fill="#8dd3c7" stroke="transparent" points="127,-10 127,-30 147,-30 147,-10 127,-10"/>
<text text-anchor="start" x="150.7251" y="-15.4" font-family="sans-serif" font-size="14.00" fill="#000000"> &#160;Module</text>
<polygon fill="#80b1d3" stroke="transparent" points="213,-10 213,-30 233,-30 233,-10 213,-10"/>
<text text-anchor="start" x="236.7812" y="-15.4" font-family="sans-serif" font-size="14.00" fill="#000000"> &#160;Bootstrap</text>
<polygon fill="#fdb462" stroke="transparent" points="310,-10 310,-30 330,-30 330,-10 310,-10"/>
<text text-anchor="start" x="333.6732" y="-15.4" font-family="sans-serif" font-size="14.00" fill="#000000"> &#160;Providers</text>
<polygon fill="#fb8072" stroke="transparent" points="406,-10 406,-30 426,-30 426,-10 406,-10"/>
<text text-anchor="start" x="429.7258" y="-15.4" font-family="sans-serif" font-size="14.00" fill="#000000"> &#160;Exports</text>
<g id="clust1" class="cluster">
<title>cluster_NgxPermissionsModule</title>
<polygon fill="none" stroke="#000000" stroke-dasharray="1,5" points="150,-70 150,-268 346,-268 346,-70 150,-70"/>
</g>
<g id="clust2" class="cluster">
<title>cluster_NgxPermissionsModule_declarations</title>
<polygon fill="none" stroke="#000000" points="160,-78 160,-130 336,-130 336,-78 160,-78"/>
</g>
<g id="clust5" class="cluster">
<title>cluster_NgxPermissionsModule_exports</title>
<polygon fill="none" stroke="#000000" points="158,-208 158,-260 338,-260 338,-208 158,-208"/>
</g>
<!-- NgxPermissionsDirective -->
<g id="node1" class="node">
<title>NgxPermissionsDirective</title>
<polygon fill="#ffffb3" stroke="#000000" points="327.8529,-122 168.1471,-122 168.1471,-86 327.8529,-86 327.8529,-122"/>
<text text-anchor="middle" x="248" y="-99.8" font-family="Times,serif" font-size="14.00" fill="#000000">NgxPermissionsDirective</text>
</g>
<!-- NgxPermissionsModule -->
<g id="node2" class="node">
<title>NgxPermissionsModule</title>
<polygon fill="#8dd3c7" stroke="#000000" points="323.8201,-187 320.8201,-191 299.8201,-191 296.8201,-187 172.1799,-187 172.1799,-151 323.8201,-151 323.8201,-187"/>
<text text-anchor="middle" x="248" y="-164.8" font-family="Times,serif" font-size="14.00" fill="#000000">NgxPermissionsModule</text>
</g>
<!-- NgxPermissionsDirective&#45;&gt;NgxPermissionsModule -->
<g id="edge1" class="edge">
<title>NgxPermissionsDirective&#45;&gt;NgxPermissionsModule</title>
<path fill="none" stroke="#000000" d="M248,-122.1061C248,-122.1061 248,-140.991 248,-140.991"/>
<polygon fill="#000000" stroke="#000000" points="244.5001,-140.9909 248,-150.991 251.5001,-140.991 244.5001,-140.9909"/>
</g>
<!-- NgxPermissionsDirective  -->
<g id="node3" class="node">
<title>NgxPermissionsDirective </title>
<polygon fill="#fb8072" stroke="#000000" points="329.8532,-252 166.1468,-252 166.1468,-216 329.8532,-216 329.8532,-252"/>
<text text-anchor="middle" x="248" y="-229.8" font-family="Times,serif" font-size="14.00" fill="#000000">NgxPermissionsDirective </text>
</g>
<!-- NgxPermissionsModule&#45;&gt;NgxPermissionsDirective  -->
<g id="edge2" class="edge">
<title>NgxPermissionsModule&#45;&gt;NgxPermissionsDirective </title>
<path fill="none" stroke="#000000" stroke-dasharray="5,2" d="M248,-187.1061C248,-187.1061 248,-205.991 248,-205.991"/>
<polygon fill="#000000" stroke="#000000" points="244.5001,-205.9909 248,-215.991 251.5001,-205.991 244.5001,-205.9909"/>
</g>
</g>
</svg>
